<?xml version="1.0" encoding="UTF-8" standalone="no"?>
<svg viewBox="0 0 100 100" xmlns="http://www.w3.org/2000/svg">
<g transform="translate(0,-952.36218)">
<path d="m35.51302,975.76123c-3.08892-.013-6.31225.6296-8.91936.2388-.39302.015-.71703.3624-.71703.7567v.4778c0,.049.048.049.0804.079 1.25345.9784 2.4763,1.6967 3.90196,2.3096 .93424.2135 2.33649-.8376 2.98632-1.1946 2.35809-.863 5.55262-.7509 7.72591-.5576 .06,0 .17041-.064.19981-.1198 .15301-.3015.12421-.5947 0-.8759-1.57086-.8531-3.40394-1.1083-5.25681-1.115zm1.87207,2.0308-.79623.079c-.036,0-.0948.018-.12001.04l-1.55346,1.2744-3.78315.677-.15901-.1593c-.042-.033-.1092-.055-.15961-.04-.16141.049-.30361.059-.43802.08-.048.015-.0786.034-.11941.04-.06.015-.14221.062-.15961.1197-.012.06-.012.1595.036.1991l.63663.4779h.036c.0918.073.16441.1045.27901.079l2.11088-.4779 .47762,1.2743h.23941l2.66771,8.4425-4.14137,6.1725c-2.76611-1.7641-6.08124-2.7875-9.59738-2.7875-9.83559,0-17.84111,8.00517-17.84111,17.84077s8.00552,17.8406 17.84111,17.8406c8.19213,0 15.1194-5.5615 17.20389-13.1018 .61322,2.5093 2.83691,4.3806 5.53462,4.3806 1.35245,0 2.6035-.4526 3.58454-1.2347l.23881.2392h1.75207l-1.11485-1.1151c.80283-.9877 1.27385-2.2517 1.27385-3.6239 0-1.3565-.48722-2.5621-1.27385-3.5442l17.68091-20.58857-.43802,5.8938c-4.81279,3.1991-7.96412,8.65607-7.96412,14.85407 0,9.8354 8.00492,17.8406 17.83991,17.8406 9.83559,0 17.84112-8.0052 17.84112-17.8406s-8.00552-17.84077-17.84112-17.84077c-2.18589,0-4.31357.3913-6.25165,1.115l-5.57422-13.3402 4.26077-.4779c.21781.2517.51782.3982.87604.3982 .65463,0 1.19465-.5007 1.19465-1.1548s-.54062-1.1946-1.19465-1.1946c-.46922,0-.84363.2806-1.03504.6769l-5.0978.5974h-.0798c-.36241.085-.58742.535-.43802.876l1.91168,4.3807-28.35353,3.0264-2.31009-7.3673h-.036l-.27841-.8362 .39842-.04c.0678-.015.1056-.038.15901-.079l2.15049-1.7522c.054-.041.06-.097.036-.1593s-.054-.1593-.12001-.1593zm34.40718,1.3143c.11101.2071.15901.4651.15901.7166s-.048.4701-.15901.6771h2.66771 .036c2.14629,0 3.86355,1.7173 3.86355,3.8629s-1.71727,3.8628-3.86355,3.8628c-.37802-.013-.72783.3384-.71703.7168 .018.3651.35221.6881.71703.677 2.89812,0 5.25681-2.3585 5.25681-5.2566s-2.3587-5.2566-5.25681-5.2566zm-8.32293,9.1591 .63663,2.3894-16.04824,18.67707c-.74823-.3579-1.58406-.5575-2.4691-.5575-.58802,0-1.13825.1147-1.67227.2787l-5.69483-18.19907zm-26.40285,3.1859 5.69483,18.11947c-.86763.5001-1.60566,1.2061-2.11028,2.0708 0-.1728.036-.3437.036-.5177 0-5.8599-2.83151-11.0418-7.20809-14.29647zm-14.21697,2.4691c3.39314,0 6.57086,1.0048 9.23917,2.708l-8.96016,13.30067c-.0906-.02-.18301-.079-.27901-.079-.70323,0-1.27445.5706-1.27445,1.2744s.57122,1.2743 1.27445,1.2743c.35221,0 .68523-.1278.91624-.3585l15.96904,2.3098c-1.51566,7.9477-8.50354,13.9778-16.88528,13.9778-9.48398,0-17.20329-7.7193-17.20329-17.2034s7.71931-17.20357 17.20329-17.20357zm54.31837,0c9.48458,0 17.20389,7.71937 17.20389,17.20347s-7.71931,17.2036-17.20389,17.2036-17.20329-7.7194-17.20329-17.2036c0-5.9076 2.97612-11.1178 7.5273-14.21677l8.56114,13.65917c-.0954.1786-.15901.3413-.15901.5576 0,.7038.57062,1.2744 1.27385,1.2744s1.27445-.5706 1.27445-1.2744c0-.6761-.52862-1.232-1.19465-1.2742l-6.09324-14.81427c1.87328-.7006 3.90076-1.115 6.01344-1.115zm-44.04356,3.4246c4.20917,3.13947 6.92848,8.13767 6.92848,13.77887 0,.6621-.048,1.3083-.1188,1.9513l-15.85023-2.2698zm12.4643,12.14617c2.77331,0 5.0174,2.2442 5.0174,5.0176 0,1.1729-.40082,2.2514-1.07464,3.1062l-1.63267-1.5929c-.51302-.5538-.79623-1.0385-.79623-1.3937 0-.432.46262-1.0993 1.19465-1.7921-.23101-.344-.53282-.6451-.87664-.8762-.69243.7319-1.36025,1.1948-1.79227,1.1948s-1.09924-.4629-1.79167-1.1948c-.34381.231-.64503.5322-.87604.8762 .73143.6928 1.19405,1.3601 1.19405,1.7921s-.46262,1.0594-1.19405,1.7522c.23101.3434.53222.6449.87604.8759 .69243-.7313 1.35966-1.1547 1.79167-1.1547 .37622,0 .92284.3088 1.51386.8761l1.51266,1.5133c-.84723.6528-1.91348,1.0353-3.06612,1.0353-2.77331,0-5.0174-2.2438-5.0174-5.0177s2.24409-5.0176 5.0174-5.0176zm-.0786.876-.27901.239-.27901-.1992-.19861.2788-.31861-.1593-.15901.2789-.31921-.08-.15901.2788-.31861-.04-.12001.3186-.31861-.04-.0786.3585h-.35881v.3583l-.31861.04v.3585l-.31861.079 .0798.3584-.31801.1198 .0792.3186-.27901.199 .15961.3187-.27901.1992 .19921.2786-.23881.2391 .23881.2787-.19921.2787 .23941.239-.16021.2787 .27901.1992-.15901.3186 .31801.1593-.0786.3185 .31861.1198-.036.3585 .31861.079v.3187l.31861.08 .036.3186h.35821l.0798.3186 .31801-.04 .12001.3186 .35821-.079 .15901.2788 .31921-.1197 .19921.2787 .27841-.1593 .23881.239 .27901-.1991 .23881.1991 .23941-.1991 .31861.1593 .19861-.239 .31861.1198 .15901-.2788 .31921.1199 .15901-.3186 .31861.08 .12001-.3185-.47762-.4779c-.51902.3208-1.13705.5176-1.79287.5176-1.87807,0-3.38474-1.5069-3.38474-3.3849s1.50666-3.4248 3.38474-3.4248 3.38534,1.5469 3.38534,3.4248c0,.6535-.15781,1.2341-.47762,1.7522l.47762.4779 .27841-.08-.0786-.3186 .31861-.1593-.12001-.3185 .27901-.1593-.12001-.3187 .23941-.2388-.15961-.2788 .23881-.239-.23881-.2389 .19921-.2788-.23941-.2389 .15901-.3186-.27781-.1991 .12001-.2786-.27901-.1993 .0786-.3185-.31801-.1198 .036-.3186-.31861-.08v-.3584l-.31801-.04-.036-.3186h-.35882l-.0798-.3185-.31921.04-.15901-.3186-.31861.079-.15901-.3186-.31861.1197-.19861-.2388-.27901.1593-.23941-.2788-.27841.199zm.11941,3.3849c.46862,0 .83583.4075.83583.8763s-.36721.8362-.83583.8362-.83643-.3679-.83643-.8362 .36841-.8763.83643-.8763zm0,.1593c-.38521,0-.67683.3321-.67683.717s.29161.6769.67683.6769 .67683-.2921.67683-.6769c0-.3852-.29161-.717-.67683-.717zm3.18553,5.5355c-.28261,0-.51722.1952-.51722.4778v.5576c0,.2825.23461.5178.51722.5178h4.38077c.28321,0 .47822-.2352.47822-.5178v-.5576c0-.2824-.19501-.4778-.47822-.4778zm2.19129.1198c.36001,0 .63663.2768.63663.6372s-.27661.6768-.63663.6768-.67743-.3163-.67743-.6768 .31621-.6372.67743-.6372zm0,.3186c-.18301,0-.35881.1362-.35881.3186s.17581.3583.35881.3583 .31801-.1758.31801-.3583-.13621-.3186-.31801-.3186zm-1.27505.079c.14101,0 .23881.097.23881.239s-.0966.2788-.23881.2788-.27841-.1372-.27841-.2788 .13741-.239.27841-.239zm2.5489,0c.14041,0 .23881.097.23881.239s-.0972.2788-.23881.2788-.27901-.1372-.27901-.2788 .13741-.239.27901-.239zm-3.26533.08c.093,0 .15901.064.15901.1593 0,.093-.0678.199-.15901.199s-.19981-.1044-.19981-.199 .1062-.1593.19981-.1593zm3.98176,0c.093,0 .15961.064.15961.1593 0,.093-.0672.199-.15961.199s-.19861-.1044-.19861-.199 .10561-.1593.19861-.1593z" fill-rule="evenodd"/>
</g>
</svg>
